HIERARCHY
ROOT Hips
{
 OFFSET 0.000000 0.000000 0.000000
 CHANNELS 6 Xposition Yposition Zposition Yrotation Xrotation Zrotation
 JOINT Chest
 {
  OFFSET 0.000000 9.812683 -0.003552
  CHANNELS 3 Yrotation Xrotation Zrotation
  JOINT Chest2
  {
   OFFSET 0.000000 9.777810 0.007248
   CHANNELS 3 Yrotation Xrotation Zrotation
   JOINT Chest3
   {
    OFFSET 0.000000 9.736392 0.000000
    CHANNELS 3 Yrotation Xrotation Zrotation
    JOINT Chest4
    {
     OFFSET 0.000000 9.726454 0.000000
     CHANNELS 3 Yrotation Xrotation Zrotation
     JOINT Neck
     {
      OFFSET 0.000000 14.679095 0.000000
      CHANNELS 3 Yrotation Xrotation Zrotation
      JOINT Head
      {
       OFFSET 0.000000 9.104124 0.015333
       CHANNELS 3 Yrotation Xrotation Zrotation
       End Site
       {
        OFFSET 0.000000 17.313862 0.008094
       }
      }
     }
     JOINT RightCollar
     {
      OFFSET -2.991841 9.728033 0.000000
      CHANNELS 3 Yrotation Xrotation Zrotation
      JOINT RightShoulder
      {
       OFFSET -14.105608 0.000000 0.000000
       CHANNELS 3 Yrotation Xrotation Zrotation
       JOINT RightElbow
       {
        OFFSET -30.920614 0.000000 0.000000
        CHANNELS 3 Yrotation Xrotation Zrotation
        JOINT RightWrist
        {
         OFFSET -25.011638 0.000000 0.000000
         CHANNELS 3 Yrotation Xrotation Zrotation
         End Site
         {
          OFFSET -18.498852 0.000000 0.000000
         }
        }
       }
      }
     }
     JOINT LeftCollar
     {
      OFFSET 2.991841 9.728033 0.000000
      CHANNELS 3 Yrotation Xrotation Zrotation
      JOINT LeftShoulder
      {
       OFFSET 14.105608 0.000000 0.000000
       CHANNELS 3 Yrotation Xrotation Zrotation
       JOINT LeftElbow
       {
        OFFSET 30.920614 0.000000 0.000000
        CHANNELS 3 Yrotation Xrotation Zrotation
        JOINT LeftWrist
        {
         OFFSET 25.011638 0.000000 0.000000
         CHANNELS 3 Yrotation Xrotation Zrotation
         End Site
         {
          OFFSET 18.498852 0.000000 0.000000
         }
        }
       }
      }
     }
    }
   }
  }
 }
 JOINT RightHip
 {
  OFFSET -8.005612 0.017580 0.001776
  CHANNELS 3 Yrotation Xrotation Zrotation
  JOINT RightKnee
  {
   OFFSET 0.000000 -41.413990 -0.001697
   CHANNELS 3 Yrotation Xrotation Zrotation
   JOINT RightAnkle
   {
    OFFSET 0.000000 -40.303361 -0.002870
    CHANNELS 3 Yrotation Xrotation Zrotation
    JOINT RightToe
    {
     OFFSET 0.000000 -7.855341 17.873357
     CHANNELS 3 Yrotation Xrotation Zrotation
     End Site
     {
      OFFSET 0.000000 -1.536332 6.874071
     }
    }
   }
  }
 }
 JOINT LeftHip
 {
  OFFSET 8.005612 0.017580 0.001776
  CHANNELS 3 Yrotation Xrotation Zrotation
  JOINT LeftKnee
  {
   OFFSET 0.000000 -41.413990 -0.001697
   CHANNELS 3 Yrotation Xrotation Zrotation
   JOINT LeftAnkle
   {
    OFFSET 0.000000 -40.303361 -0.002870
    CHANNELS 3 Yrotation Xrotation Zrotation
    JOINT LeftToe
    {
     OFFSET 0.000000 -7.855341 17.873357
     CHANNELS 3 Yrotation Xrotation Zrotation
     End Site
     {
      OFFSET 0.000000 -1.536332 6.874071
     }
    }
   }
  }
 }
}
MOTION
Frames: 5
Frame Time: 0.008333
0.000000 89.373800 0.000000 0.000000 -5.767889 0.000000 0.000000 11.653876 0.000000 0.000000 -5.885988 0.000000 0.000000 -0.000000 0.000000 0.000000 -0.000000 0.000000 0.000000 12.528808 0.000000 0.000000 0.711711 0.000000 0.000000 -0.000000 0.000000 0.000000 -0.000000 0.000000 2.309063 -0.000000 0.000000 -2.309063 -0.000000 -0.000000 0.000000 -0.000000 0.000000 0.000000 0.000000 0.000000 -2.309063 0.000000 0.000000 2.309063 -0.000000 0.000000 0.000000 8.520374 0.000000 0.000000 1.905768 0.000000 -0.000000 -4.658254 0.000000 0.000000 -0.000000 0.000000 0.000000 8.520374 0.000000 0.000000 1.905768 0.000000 -0.000000 -4.658254 0.000000 0.000000 -0.000000 0.000000
-9.170989 91.100381 -6.144962 -134.425163 -5.969959 -0.305899 0.401414 2.529476 0.118363 0.228021 1.445098 0.092997 0.285416 1.806314 0.117154 0.228021 1.445098 0.092997 -0.544559 14.145320 0.106096 -1.065518 -9.523799 0.409911 -1.497319 0.312978 0.807740 1.304668 -0.146651 89.133416 -0.363010 6.874651 -0.405189 0.367624 -4.686798 -1.173649 -1.872438 0.125961 0.270749 -1.262711 -0.837233 -89.375218 -0.116223 3.963545 -0.435450 -0.850349 -1.785472 0.327467 -0.363129 6.635024 -0.146011 -0.556455 5.931491 -2.259897 0.518319 -6.854471 1.981411 -0.020569 -0.046633 -0.007828 -0.825581 6.261403 -1.005593 -2.104782 7.104230 -0.955457 1.303418 -7.053242 1.786174 0.009781 0.057455 0.000242
-9.173429 91.099882 -6.146476 -134.400864 -5.966884 -0.302996 0.406790 2.532711 0.115645 0.231538 1.446117 0.092434 0.289811 1.807586 0.116466 0.231538 1.446117 0.092434 -0.548597 14.146694 0.107497 -1.073644 -9.521198 0.414093 -1.495164 0.314833 0.810357 1.302617 -0.139912 89.142345 -0.374793 6.869796 -0.414165 0.360055 -4.691954 -1.173350 -1.877498 0.128102 0.273926 -1.248466 -0.844961 -89.377597 -0.116196 3.970106 -0.437192 -0.855772 -1.788488 0.328717 -0.373675 6.638285 -0.150599 -0.565124 5.928925 -2.263378 0.518481 -6.859506 1.985276 -0.023767 -0.044296 -0.008114 -0.830948 6.267655 -1.007282 -2.109881 7.085206 -0.956261 1.290846 -7.045196 1.789545 0.010225 0.058227 -0.000549
-9.175879 91.099269 -6.148184 -134.375620 -5.962468 -0.300519 0.411384 2.534740 0.112558 0.234542 1.446593 0.091428 0.293561 1.808182 0.115220 0.234542 1.446593 0.091428 -0.552016 14.148521 0.109739 -1.080927 -9.517753 0.419612 -1.488194 0.319636 0.815373 1.297869 -0.136571 89.151342 -0.388307 6.866111 -0.421869 0.356969 -4.694991 -1.173755 -1.879108 0.131816 0.278848 -1.242788 -0.852302 -89.381552 -0.115098 3.968595 -0.438296 -0.859273 -1.791021 0.330036 -0.386918 6.640479 -0.155205 -0.573840 5.926071 -2.266151 0.519217 -6.864536 1.988463 -0.026515 -0.042197 -0.008515 -0.836204 6.270625 -1.008290 -2.115456 7.070000 -0.957345 1.278889 -7.038828 1.791542 0.011010 0.058903 -0.000128
-9.177927 91.098563 -6.149922 -134.350846 -5.955617 -0.299125 0.414731 2.535608 0.111047 0.236843 1.446642 0.090555 0.296434 1.808243 0.114137 0.236843 1.446642 0.090555 -0.553140 14.149945 0.111225 -1.083604 -9.515082 0.422828 -1.480729 0.324906 0.820845 1.294283 -0.134160 89.157892 -0.403291 6.864156 -0.426534 0.359440 -4.695221 -1.173666 -1.878388 0.135533 0.281350 -1.246929 -0.859613 -89.385922 -0.112637 3.956538 -0.439015 -0.858412 -1.792786 0.331309 -0.401579 6.640057 -0.158467 -0.581313 5.922965 -2.268260 0.518738 -6.868778 1.990707 -0.027152 -0.040509 -0.008868 -0.844570 6.267825 -1.008434 -2.123410 7.060924 -0.958557 1.272541 -7.035325 1.791832 0.011932 0.059578 0.000978
